# xmcd
#
# Track frame offsets:
#	150
#	12233
#	24068
#	36278
#	48938
#	58561
#	70681
#	83686
#	96594
#	107754
#	120362
#	132077
#
# Disc length: 1909 seconds
#
# Revision: 0
# Processed by: cddbd v1.5.2PL0 Copyright (c) Steve Scherf et al.
# Submitted via: audiograbber 1.83.01
#
DISCID=8d07730c
DTITLE=Hank Williams - Sings Kaw-Liga and Other Humorous Songs
DYEAR=1965
DGENRE=Country
TTITLE0=Howlin' At The Moon
TTITLE1=Just Waitin'
TTITLE2=Move It On Over
TTITLE3=Everything's Okay
TTITLE4=Honky Tonk Blues
TTITLE5=Fly Trouble
TTITLE6=Mind Your Own Business
TTITLE7=I've Been Down That Road Before
TTITLE8=I'll Never Get Out Of This World Alive
TTITLE9=Please Make Up Your Mind
TTITLE10=Kaw-Liga
TTITLE11=Nobody's Lonesome For Me
EXTD=This CD was created from my LP
EXTT0=
EXTT1=
EXTT2=
EXTT3=
EXTT4=
EXTT5=
EXTT6=
EXTT7=
EXTT8=
EXTT9=
EXTT10=
EXTT11=
PLAYORDER=
